<svg width="46" height="49" viewBox="0 0 46 49" fill="none" xmlns="http://www.w3.org/2000/svg">
<path d="M16.7379 23.3973C20.8102 23.3973 23.5463 19.3883 23.5463 13.4206C23.5463 7.59697 22.3452 0 18.7371 0C14.7084 0 9.55293 6.36581 9.55293 12.4845C9.55328 18.6038 12.7094 23.3973 16.7382 23.3973H16.7379Z" fill="white"/>
<path d="M30.308 23.3973C33.8984 23.3973 36.7111 18.6041 36.7111 12.4854C36.7111 6.36676 32.4581 0.000854492 28.8677 0.000854492C26.5088 0.000854492 25.1837 5.44834 25.1837 12.4854C25.1841 19.5219 27.0043 23.3973 30.308 23.3973Z" fill="white"/>
<path d="M44.9455 21.5599C44.6404 18.002 43.1399 17.255 41.9343 17.255C39.941 17.255 37.8734 19.5555 37.6993 19.7603C32.808 24.513 32.5962 27.4849 36.7145 33.5883C37.6129 34.9203 38.612 35.5949 39.6829 35.5949C40.4867 35.5949 41.2427 35.2174 41.9273 34.4708C44.0077 32.2033 45.3614 26.4121 44.9455 21.5601V21.5599Z" fill="white"/>
<path d="M7.20853 18.6599C6.17778 17.5946 5.15604 17.0548 4.17156 17.0548C1.23871 17.0548 0.313429 21.5443 0.208233 22.1165C-0.414424 27.1666 0.374345 31.3577 2.37287 33.6185C3.32044 34.6894 4.48563 35.2559 5.74415 35.2559C7.09673 35.2559 8.46741 34.5901 9.70855 33.3305C13.4598 29.5228 12.5488 24.1748 7.20853 18.66V18.6599Z" fill="white"/>
<path d="M22.9079 25.0707C19.3733 25.0707 17.0967 28.6126 16.7099 29.2607C8.30098 38.863 8.63181 43.5167 9.61344 46.1831C10.0313 47.317 10.9235 47.9411 12.1257 47.9411C13.6283 47.9411 15.5855 46.9639 18.0611 45.4964C21.1259 43.6807 25.1843 42.8988 29.269 47.2477C30.1357 48.1709 30.9983 49.0001 32.2788 49.0001C32.9165 49.0001 33.5889 48.78 34.3355 48.3255C35.7919 47.4403 36.6764 46.2793 36.9643 44.8734C37.7002 41.2872 34.5107 36.4714 29.56 29.5316C27.4508 26.5716 25.2119 25.0707 22.908 25.0707L22.9079 25.0707Z" fill="white"/>
</svg>
