<svg width="34" height="34" viewBox="0 0 34 34" fill="none" xmlns="http://www.w3.org/2000/svg">
<path d="M34 11.7643C34 12.974 33.4989 14.1423 32.6632 15.0183C31.786 15.8945 30.6584 16.3534 29.4053 16.3534C28.1521 16.3534 27.0243 15.8529 26.1473 14.9767C25.8131 14.6429 25.312 14.6429 24.9778 14.9767L14.9533 24.9889C14.6191 25.3227 14.6191 25.8651 14.9533 26.157C15.8306 27.0332 16.29 28.1593 16.29 29.4109C16.29 30.6625 15.8306 31.789 14.9533 32.6649C14.076 33.5411 12.9484 34 11.6953 34C10.4422 34 9.31434 33.4995 8.43734 32.6649C7.14258 31.3298 6.72475 29.4109 7.43482 27.6589C7.5601 27.3251 7.47648 26.9913 7.26787 26.7411C7.10092 26.5743 6.89202 26.4908 6.68312 26.4908C6.55784 26.4908 6.47422 26.4908 6.34893 26.5324C4.63634 27.2416 2.6732 26.8662 1.33675 25.5312C0.459457 24.6549 0 23.5288 0 22.2772C0 21.0256 0.501136 19.8991 1.33675 19.0232C3.13266 17.2295 6.0567 17.2295 7.85261 19.0232C8.1868 19.357 8.68791 19.357 9.02214 19.0232L19.0466 9.01104C19.3808 8.67727 19.3808 8.17677 19.0466 7.84295C17.2507 6.04925 17.2507 3.12881 19.0466 1.33511C19.9239 0.458892 21.0515 0 22.3046 0C23.5578 0 24.6856 0.50052 25.5626 1.33511C26.8573 2.67021 27.2752 4.63064 26.5651 6.34113C26.4398 6.6749 26.5234 7.00867 26.7321 7.25891C26.9826 7.50917 27.3168 7.55107 27.651 7.42565C29.3636 6.71649 31.3267 7.09188 32.6632 8.42695C33.4985 9.38667 33.9999 10.5128 33.9999 11.7644L34 11.7643Z" fill="#2E2E2E"/>
</svg>
