<svg width="32" height="32" viewBox="0 0 32 32" fill="none" xmlns="http://www.w3.org/2000/svg">
<path d="M20.2441 1.57717C19.2677 5.03252 19.9437 8.71333 22.047 11.6054C24.1129 14.4977 27.3806 16.2629 31.0236 16.4131L32 16.4506V16C32 8.75078 27.1548 2.59135 20.5067 0.63855L20.2441 1.57717Z" fill="#0000FF"/>
<path d="M30.9487 18.6666C26.6293 18.4789 22.7234 16.4131 20.2441 12.92C17.69 9.46461 16.9012 5.10746 18.0655 0.976413L18.291 0.150203C17.5397 0.0374918 16.7887 0 16 0C7.92456 0 1.2393 6.00957 0.150177 13.784L1.01418 13.8592C5.03316 14.1973 8.71363 16.2629 11.1173 19.5306C13.4836 22.7608 14.3476 26.8922 13.4461 30.8734L13.2579 31.7746C14.1594 31.9248 15.0608 32 15.9998 32C23.8872 32 30.4975 26.2534 31.7746 18.7038L30.9487 18.6666Z" fill="#0000FF"/>
<path d="M11.2675 30.3854C12.0188 27.0427 11.305 23.5871 9.31441 20.8455C7.28635 18.1414 4.20631 16.3762 0.826209 16.1133L1.06191e-08 16.0381C-0.000256791 23.1368 4.6572 29.1464 11.0799 31.2122L11.2675 30.3854Z" fill="#0000FF"/>
</svg>
