<svg width="35" height="38" viewBox="0 0 35 38" fill="none" xmlns="http://www.w3.org/2000/svg">
<path d="M33.2997 22.2374C31.0154 20.3213 30.9424 17.0407 33.1408 15.0886C35.3091 13.162 35.3753 12.8938 34.1113 10.3581C33.7343 9.60295 33.3135 8.86341 32.8455 8.16121C31.4461 6.06016 30.8508 5.87692 28.507 6.72483C25.8169 7.69739 22.895 6.15083 22.2918 3.43461C21.619 0.40844 21.3322 0.147076 18.2506 0.00859012C17.409 -0.0292564 16.5613 0.0683631 15.7158 0.0996021C13.88 0.167786 12.9245 0.954127 12.6857 2.9393C12.3229 5.9574 9.46909 7.68421 6.7072 6.82092C3.76754 5.9018 3.35239 6.04536 1.73854 8.64808C1.32523 9.31429 0.958215 10.0139 0.620572 10.7221C-0.362826 12.7847 -0.209039 13.4357 1.54753 14.9075C3.94594 16.9167 4.01114 20.1291 1.69471 22.1611C-0.319835 23.9284 -0.426488 24.385 0.786133 26.7763C1.2496 27.69 1.78483 28.5716 2.3417 29.4327C3.28573 30.8922 4.4446 31.3545 6.19694 30.6027C9.14745 29.336 12.049 30.9616 12.6954 34.056C13.2397 36.6631 13.4812 36.9335 16.0589 37.1357C17.1955 37.2249 18.3501 37.1116 19.4952 37.0549C21.2226 36.9698 22.0351 36.0595 22.2444 34.317C22.6334 31.0766 25.5969 29.3838 28.6597 30.5294C29.1637 30.718 29.6626 30.9193 30.3811 31.1992C30.9581 30.7958 31.7247 30.4783 32.1614 29.9082C32.9637 28.8602 33.6449 27.7015 34.2432 26.5207C35.3693 24.2986 35.2369 23.8621 33.2997 22.2374L33.2997 22.2374ZM17.4779 27.7684C12.4056 27.7684 8.29448 23.6566 8.29448 18.5849C8.29448 13.5126 12.4059 9.40067 17.4779 9.40067C22.55 9.40067 26.6614 13.5124 26.6614 18.5841C26.6614 23.6558 22.55 27.7684 17.4779 27.7684Z" fill="#2E2E2E"/>
</svg>
